<svg id="visual" viewBox="0 0 900 600" width="900" height="600" xmlns="http://www.w3.org/2000/svg" xmlns:xlink="http://www.w3.org/1999/xlink" version="1.1"><path d="M0 85L43 115L86 67L129 127L171 91L214 85L257 91L300 103L343 109L386 79L429 85L471 109L514 109L557 91L600 97L643 67L686 109L729 97L771 121L814 97L857 73L900 103L900 0L857 0L814 0L771 0L729 0L686 0L643 0L600 0L557 0L514 0L471 0L429 0L386 0L343 0L300 0L257 0L214 0L171 0L129 0L86 0L43 0L0 0Z" fill="#63d5bc"></path><path d="M0 265L43 277L86 175L129 295L171 253L214 259L257 223L300 259L343 199L386 211L429 253L471 223L514 253L557 229L600 241L643 265L686 277L729 217L771 253L814 259L857 265L900 283L900 101L857 71L814 95L771 119L729 95L686 107L643 65L600 95L557 89L514 107L471 107L429 83L386 77L343 107L300 101L257 89L214 83L171 89L129 125L86 65L43 113L0 83Z" fill="#51af9c"></path><path d="M0 313L43 331L86 217L129 337L171 289L214 301L257 277L300 301L343 235L386 241L429 289L471 277L514 289L557 271L600 295L643 307L686 313L729 271L771 295L814 289L857 313L900 313L900 281L857 263L814 257L771 251L729 215L686 275L643 263L600 239L557 227L514 251L471 221L429 251L386 209L343 197L300 257L257 221L214 257L171 251L129 293L86 173L43 275L0 263Z" fill="#418b7d"></path><path d="M0 373L43 403L86 277L129 391L171 361L214 379L257 349L300 373L343 325L386 325L429 349L471 331L514 361L557 355L600 373L643 367L686 361L729 337L771 355L814 373L857 391L900 361L900 311L857 311L814 287L771 293L729 269L686 311L643 305L600 293L557 269L514 287L471 275L429 287L386 239L343 233L300 299L257 275L214 299L171 287L129 335L86 215L43 329L0 311Z" fill="#32685f"></path><path d="M0 493L43 511L86 475L129 505L171 481L214 487L257 517L300 481L343 481L386 493L429 481L471 487L514 511L557 481L600 481L643 487L686 487L729 475L771 505L814 481L857 511L900 481L900 359L857 389L814 371L771 353L729 335L686 359L643 365L600 371L557 353L514 359L471 329L429 347L386 323L343 323L300 371L257 347L214 377L171 359L129 389L86 275L43 401L0 371Z" fill="#244742"></path><path d="M0 559L43 553L86 547L129 559L171 559L214 565L257 565L300 535L343 541L386 535L429 541L471 559L514 559L557 541L600 541L643 559L686 535L729 541L771 547L814 559L857 553L900 535L900 479L857 509L814 479L771 503L729 473L686 485L643 485L600 479L557 479L514 509L471 485L429 479L386 491L343 479L300 479L257 515L214 485L171 479L129 503L86 473L43 509L0 491Z" fill="#172826"></path><path d="M0 601L43 601L86 601L129 601L171 601L214 601L257 601L300 601L343 601L386 601L429 601L471 601L514 601L557 601L600 601L643 601L686 601L729 601L771 601L814 601L857 601L900 601L900 533L857 551L814 557L771 545L729 539L686 533L643 557L600 539L557 539L514 557L471 557L429 539L386 533L343 539L300 533L257 563L214 563L171 557L129 557L86 545L43 551L0 557Z" fill="#020908"></path></svg>